# AST/ASF file generated using VICON BodyLanguage
# -----------------------------------------------
:version 1.10
:name VICON
:units
  mass 1.0
  length 0.45
  angle deg
:documentation
   .ast/.asf automatically generated from VICON data using
   VICON BodyBuilder and BodyLanguage model FoxedUp or BRILLIANT.MOD
:root
   order TX TY TZ RX RY RZ
   axis XYZ
   position 0 0 0  
   orientation 0 0 0 
:bonedata
  begin
     id 1 
     name lhipjoint
     direction 0.643822 -0.745931 0.170529 
     length 2.62041 
     axis 0 0 0  XYZ
  end
  begin
     id 2 
     name lfemur
     direction 0.34202 -0.939693 0  
     length 7.92179  
     axis 0 0 20  XYZ
    dof rx ry rz
    limits (-160.0 20.0)
           (-70.0 70.0)
           (-60.0 70.0)
  end
  begin
     id 3 
     name ltibia
     direction 0.34202 -0.939693 0   
     length 8.16326   
     axis 0 0 20   XYZ
    dof rx
    limits (-10.0 170.0)
  end
  begin
     id 4 
     name lfoot
     direction 0.0837341 -0.230058 0.969568   
     length 1.94455   
     axis -90 7.62852e-016 20   XYZ
    dof rx rz
    limits (-45.0 90.0)
           (-70.0 20.0)
  end
  begin
     id 5 
     name ltoes
     direction 1.5356e-011 -4.21695e-011 1   
     length 0.978804   
     axis -90 7.62852e-016 20   XYZ
    dof rx
    limits (-90.0 20.0)
  end
  begin
     id 6 
     name rhipjoint
     direction -0.656883 -0.73503 0.168037   
     length 2.65927  
     axis 0 0 0  XYZ 
  end
  begin
     id 7 
     name rfemur
     direction -0.34202 -0.939693 0   
     length 7.58746   
     axis 0 0 -20   XYZ
    dof rx ry rz
    limits (-160.0 20.0)
           (-70.0 70.0)
           (-70.0 60.0)
  end
  begin
     id 8 
     name rtibia
     direction -0.342117 -0.939657 0   
     length 8.27303   
     axis 0 0 -20   XYZ
    dof rx
    limits (-10.0 170.0)
 end
 begin
     id 9 
     name rfoot
     direction -0.0685862 -0.188439 0.979687   
     length 2.13088  
     axis -90 -7.62852e-016 -20   XYZ
    dof rx rz
    limits (-45.0 90.0)
           (-20.0 70.0)
  end
  begin
     id 10 
     name rtoes
     direction -1.53538e-011 -4.21514e-011 1   
     length 1.07326   
     axis -90 -7.62852e-016 -20   XYZ
    dof rx
    limits (-90.0 20.0)
  end
  begin
     id 11 
     name lowerback
     direction -0.0358974 0.997216 0.065354   
     length 1.87174   
     axis 0 0 0   XYZ
    dof rx ry rz
    limits (-20.0 45.0)
           (-30.0 30.0)
           (-30.0 30.0)
  end
  begin
     id 12 
     name upperback
     direction 0.0202028 0.998565 0.0495864   
     length 1.8684   
     axis 0 0 0   XYZ
    dof rx ry rz
    limits (-20.0 45.0)
           (-30.0 30.0)
           (-30.0 30.0)
  end
  begin
     id 13 
     name thorax
     direction 0.0366367 0.999163 0.0182199   
     length 1.87747   
     axis 0 0 0   XYZ
    dof rx ry rz
    limits (-20.0 45.0)
           (-30.0 30.0)
           (-30.0 30.0)
  end
  begin
     id 14 
     name lowerneck
     direction 0.0284381 0.999578 -0.00598196   
     length 1.84583   
     axis 0 0 0   XYZ
    dof rx ry rz
    limits (-20.0 45.0)
           (-30.0 30.0)
           (-30.0 30.0)
  end
  begin
     id 15 
     name upperneck
     direction -0.0888142 0.993333 -0.0734973   
     length 1.84467   
     axis 0 0 0   XYZ
    dof rx ry rz
    limits (-20.0 45.0)
           (-30.0 30.0)
           (-30.0 30.0)
  end
  begin
     id 16
     name head
     direction -0.0296474 0.999102 -0.0302696  
     length 1.86566  
     axis 0 0 0   XYZ
    dof rx ry rz
    limits (-20.0 45.0)
           (-30.0 30.0)
           (-30.0 30.0)
  end
  begin
     id 17 
     name lclavicle
     direction 0.933925 0.35714 -0.0153523  
     length 3.93442  
     axis 0 0 0   XYZ
    dof ry rz
    limits (-20.0 10.0)
           (0.0 20.0)
  end
  begin
     id 18 
     name lhumerus
     direction 1 -4.48967e-011 2.12044e-027   
     length 5.78174   
     axis 180 -30 -90   XYZ
    dof rx ry rz
    limits (-60.0 90.0)
           (-90.0 90.0)
           (-90.0 90.0)
  end
  begin
     id 19
     name lradius
     direction 1 -4.48972e-011 6.45701e-027   
     length 3.53992   
     axis 180 -30 -90   XYZ
    dof rx
    limits (-10.0 170.0)
  end
  begin
     id 20
     name lwrist
     direction 1 -4.48981e-011 1.70244e-026   
     length 1.76996   
     axis -1.1226e-014 90 90   XYZ
    dof ry
    limits (-180.0 0.0)
 end
  begin
     id 21 
     name lhand
     direction 1 -4.4879e-011 3.40615e-026   
     length 0.550243   
     axis -2.17265e-014 90 90   XYZ
    dof rx rz
    limits (-90.0 90.0)
           (-45.0 45.0)
  end
  begin
     id 22 
     name lfingers
     direction 1 -4.49029e-011 6.80911e-026   
     length 0.44362   
     axis -4.34526e-014 90 90   XYZ
    dof rx
    limits (0.0 90.0)
  end
  begin
     id 23
     name lthumb
     direction 0.707107 -6.34923e-011 0.707107   
     length 0.636952   
     axis -90 45 -1.62303e-014   XYZ
    dof rx rz
    limits (-45.0 45.0)
           (-45.0 45.0)
  end
  begin
     id 24 
     name rclavicle
     direction -0.950832 0.305106 0.0531883   
     length 3.96125  
     axis 0 0 0   XYZ 
    dof ry rz
    limits (-10.0 20.0)
           (-20.0 0.0)
  end
  begin
     id 25 
     name rhumerus
     direction -1 -4.48961e-011 -6.07392e-030  
     length 5.79352   
     axis 180 30 90   XYZ
    dof rx ry rz
    limits (-90.0 60.0)
           (-90.0 90.0)
           (-90.0 90.0)
  end
  begin
     id 26 
     name rradius
     direction -1 -4.48964e-011 5.97548e-027   
     length 3.37081   
     axis 180 30 90   XYZ
    dof rx
    limits (-10.0 170.0)
  end
  begin
     id 27 
     name rwrist
     direction -1 -4.49021e-011 1.7023e-026   
     length 1.68541   
     axis -1.1226e-014 -90 -90   XYZ
    dof ry
    limits (-180.0 0.0)
  end
  begin
     id 28
     name rhand
     direction -1 -4.48867e-011 3.40563e-026   
     length 0.679827   
     axis -2.17265e-014 -90 -90   XYZ
    dof rx rz
    limits (-90.0 90.0)
           (-45.0 45.0)
  end
  begin
     id 29
     name rfingers
     direction -1 -4.49024e-011 6.80917e-026   
     length 0.548094   
     axis -4.34526e-014 -90 -90   XYZ
    dof rx
    limits (0.0 90.0)
  end
  begin
     id 30
     name rthumb
     direction -0.707107 -6.3488e-011 0.707107   
     length 0.786956   
     axis -90 -45 1.62303e-014   XYZ
    dof rx rz
    limits (-45.0 45.0)
           (-45.0 45.0)
  end
:hierarchy
  begin
    root lhipjoint rhipjoint lowerback
    lhipjoint lfemur
    lfemur ltibia
    ltibia lfoot
    lfoot ltoes
    rhipjoint rfemur
    rfemur rtibia
    rtibia rfoot
    rfoot rtoes
    lowerback upperback
    upperback thorax
    thorax lowerneck lclavicle rclavicle
    lowerneck upperneck
    upperneck head
    lclavicle lhumerus
    lhumerus lradius
    lradius lwrist
    lwrist lhand lthumb
    lhand lfingers
    rclavicle rhumerus
    rhumerus rradius
    rradius rwrist
    rwrist rhand rthumb
    rhand rfingers
  end

#!OML:ASF H:\Terrain\Patient Classification 1\PaulMetrics\Match1Take2\PaulMetrics.ASF
:FULLY-SPECIFIED
:DEGREES
463
root -6.33896 18.085 -9.1796 13.4614 16.3002 -0.960472
lowerback -5.02184 -1.05227 -5.23887
upperback -6.40987 -1.20993 1.91878
thorax -3.69426 -0.325209 4.91393
lowerneck -0.606235 12.0169 8.61934
upperneck 4.6762 16.7552 -13.1893
head 3.34022 8.22288 -4.58571
rclavicle 6.70588e-015 -9.34288e-015
rhumerus -59.2753 17.2756 -92.7173
rradius 46.0737
rwrist -11.2075
rhand -11.1578 -31.4154
rfingers 7.12502
rthumb 14.8685 -60.8618
lclavicle 6.70588e-015 -9.34288e-015
lhumerus -46.5694 -24.6074 88.3916
lradius 79.0938
lwrist 9.20509
lhand -21.1162 -9.64661
lfingers 7.12502
lthumb 5.26216 20.2681
rfemur -42.7209 3.69573 14.1458
rtibia 40.1101
rfoot -8.2837 -13.5305
rtoes -16.8892
lfemur -15.6991 -6.32008 -27.9115
ltibia 25.1941
lfoot -22.5907 -1.73212
ltoes -11.0916
464
root -6.3182 18.0744 -9.03966 13.669 16.6177 -0.612675
lowerback -5.24431 -1.08951 -5.49859
upperback -6.34007 -1.24156 1.86491
thorax -3.49098 -0.339607 4.99872
lowerneck -1.19386 11.9018 8.38689
upperneck 5.33793 16.6252 -12.9715
head 3.58171 8.12076 -4.44382
rclavicle -1.49803e-014 8.74653e-015
rhumerus -59.1154 17.3231 -92.6296
rradius 46.0079
rwrist -11.092
rhand -11.4294 -31.198
rfingers 7.12502
rthumb 14.6068 -60.6637
lclavicle -1.49803e-014 8.74653e-015
lhumerus -46.1776 -24.7515 88.2454
lradius 80.0314
lwrist 9.23316
lhand -21.3234 -9.75734
lfingers 7.12502
lthumb 5.06204 20.1622
rfemur -42.6329 3.95242 13.6357
rtibia 37.2869
rfoot -8.16938 -14.3975
rtoes -22.1563
lfemur -15.0335 -6.2738 -28.2243
ltibia 24.6007
lfoot -22.5327 -1.85167
ltoes -11.0167
465
root -6.29311 18.0766 -8.89549 13.7205 17.0586 -0.47768
lowerback -5.35867 -1.14064 -5.51705
upperback -6.3204 -1.30228 1.85067
thorax -3.39848 -0.372864 4.99004
lowerneck -1.24821 11.7363 8.44468
upperneck 5.59996 16.4331 -13.0573
head 3.66027 8.01667 -4.4836
rclavicle 5.17632e-014 -2.29596e-014
rhumerus -59.2407 17.3761 -92.6659
rradius 46.0652
rwrist -11.0377
rhand -11.7134 -30.9748
rfingers 7.12502
rthumb 14.3331 -60.46
lclavicle 5.17632e-014 -2.29596e-014
lhumerus -46.0816 -24.9543 88.1927
lradius 80.9863
lwrist 9.3661
lhand -21.3607 -9.68655
lfingers 7.12502
lthumb 5.02604 20.2338
rfemur -42.3419 4.19112 13.3163
rtibia 34.4031
rfoot -7.98607 -15.0573
rtoes -25.4523
lfemur -14.2266 -6.09408 -28.3209
ltibia 24.0386
lfoot -22.5631 -2.05259
ltoes -11.9567
466
root -6.27297 18.0847 -8.74774 13.6591 17.346 -0.65839
lowerback -5.32876 -1.14691 -5.34711
upperback -6.4067 -1.31448 1.95001
thorax -3.50448 -0.377484 4.99957
lowerneck -0.130727 11.4878 8.8421
upperneck 4.56206 16.097 -13.774
head 3.22243 7.91269 -4.87836
rclavicle -9.78704e-015 -1.19271e-015
rhumerus -59.3986 17.5666 -92.7537
rradius 45.9881
rwrist -11.2425
rhand -11.7648 -31.1264
rfingers 7.12502
rthumb 14.2836 -60.6151
lclavicle -9.78704e-015 -1.19271e-015
lhumerus -46.2189 -25.0376 88.2295
lradius 81.8744
lwrist 9.75562
lhand -21.1379 -9.6804
lfingers 7.12502
lthumb 5.24117 20.2348
rfemur -42.0054 4.90558 13.1467
rtibia 31.477
rfoot -8.20368 -15.6591
rtoes -25.572
lfemur -13.4013 -5.90025 -28.0664
ltibia 23.4296
lfoot -22.6341 -2.18543
ltoes -12.609
467
root -6.25956 18.0827 -8.59832 13.6526 17.5351 -0.70409
lowerback -5.48867 -1.14207 -5.37827
upperback -6.33781 -1.29569 2.03047
thorax -3.34319 -0.371637 5.09826
lowerneck -1.04805 11.7775 8.31814
upperneck 5.6349 16.4905 -12.8527
head 3.61574 8.0558 -4.41296
rclavicle 5.92316e-015 3.44891e-014
rhumerus -59.2468 17.759 -92.6744
rradius 45.9074
rwrist -11.4907
rhand -12.109 -30.9664
rfingers 7.12502
rthumb 13.952 -60.4782
lclavicle 5.92316e-015 3.44891e-014
lhumerus -46.0237 -25.0827 88.1377
lradius 82.6851
lwrist 9.98035
lhand -21.3027 -9.87326
lfingers 7.12502
lthumb 5.08206 20.0458
rfemur -41.6682 5.71126 12.8469
rtibia 28.4992
rfoot -8.18025 -16.3967
rtoes -27.0172
lfemur -12.5863 -5.80296 -27.9092
ltibia 22.7584
lfoot -22.5722 -2.49255
ltoes -11.82
468
root -6.24199 18.078 -8.44574 13.7075 17.826 -0.587851
lowerback -5.77466 -1.14814 -5.50396
upperback -6.18781 -1.28257 2.0349
thorax -3.02596 -0.374105 5.1672
lowerneck -1.24155 11.7593 8.08345
upperneck 5.72728 16.453 -12.6509
head 3.63465 8.02856 -4.30896
rclavicle -1.32751e-014 -1.14301e-014
rhumerus -58.9229 17.7275 -92.4339
rradius 45.8477
rwrist -11.4251
rhand -12.6278 -30.5342
rfingers 7.12502
rthumb 13.452 -60.0798
lclavicle -1.32751e-014 -1.14301e-014
lhumerus -45.6629 -25.2129 88.0008
lradius 83.3965
lwrist 9.9677
lhand -21.5639 -9.92849
lfingers 7.12502
lthumb 4.82985 19.9965
rfemur -41.2691 6.31464 12.4072
rtibia 25.4529
rfoot -8.09739 -17.0129
rtoes -27.1289
lfemur -11.761 -5.84359 -27.893
ltibia 22.1298
lfoot -22.3191 -3.04376
ltoes -10.1432
469
root -6.21833 18.0812 -8.29102 13.6797 18.1272 -0.520771
lowerback -5.87798 -1.14183 -5.55615
upperback -6.14666 -1.2659 2.02287
thorax -2.92694 -0.368077 5.18237
lowerneck -1.01046 11.5502 8.12564
upperneck 5.69642 16.1806 -12.6997
head 3.56596 7.90406 -4.3681
rclavicle 4.42172e-014 -1.64991e-014
rhumerus -58.7296 17.6163 -92.2453
rradius 45.683
rwrist -11.0932
rhand -12.4429 -30.3334
rfingers 7.12502
rthumb 13.6302 -59.8672
lclavicle 4.42172e-014 -1.64991e-014
lhumerus -45.5492 -25.3419 87.9682
lradius 83.9778
lwrist 9.86841
lhand -21.7562 -9.76757
lfingers 7.12502
lthumb 4.64416 20.1615
rfemur -40.7182 7.04804 11.9047
rtibia 22.3819
rfoot -8.47331 -17.5658
rtoes -25.0031
lfemur -10.8606 -5.80899 -27.8457
ltibia 21.5455
lfoot -22.0519 -3.50631
ltoes -9.62838
470
root -6.19292 18.083 -8.13926 13.7345 18.4045 -0.380815
lowerback -5.98649 -1.16585 -5.58866
upperback -6.15653 -1.29117 1.96969
thorax -2.87408 -0.381868 5.1421
lowerneck -0.751713 11.366 8.17409
upperneck 5.61319 15.9339 -12.7074
head 3.47657 7.79556 -4.41637
rclavicle 5.16033e-014 1.39149e-014
rhumerus -58.6298 17.5426 -92.1221
rradius 45.5018
rwrist -10.6095
rhand -11.7412 -30.429
rfingers 7.12502
rthumb 14.3064 -59.9161
lclavicle 5.16033e-014 1.39149e-014
lhumerus -45.5519 -25.3754 87.9073
lradius 84.4494
lwrist 9.67662
lhand -21.7635 -10.0003
lfingers 7.12502
lthumb 4.63718 19.929
rfemur -40.1711 8.03391 11.1245
rtibia 19.2852
rfoot -9.01401 -18.2679
rtoes -24.0527
lfemur -10.0552 -5.5206 -27.8798
ltibia 21.0039
lfoot -21.873 -3.95332
ltoes -10.8873
471
root -6.16977 18.0756 -7.98574 13.868 18.7655 -0.062177
lowerback -6.10152 -1.2334 -5.75071
upperback -6.13434 -1.36976 1.87481
thorax -2.77649 -0.421004 5.12866
lowerneck -0.951799 11.3499 8.03356
upperneck 5.77857 15.8966 -12.4245
head 3.52037 7.77015 -4.29942
rclavicle 1.58438e-014 2.0276e-014
rhumerus -58.4696 17.5172 -92.0085
rradius 45.3338
rwrist -10.5238
rhand -11.1161 -31.1285
rfingers 7.12502
rthumb 14.9087 -60.572
lclavicle 1.58438e-014 2.0276e-014
lhumerus -45.4205 -25.4134 87.8079
lradius 84.7985
lwrist 9.56346
lhand -21.7404 -10.1014
lfingers 7.12502
lthumb 4.65948 19.8274
rfemur -39.5024 9.22025 9.97198
rtibia 16.0548
rfoot -8.98856 -19.2217
rtoes -24.4716
lfemur -9.33049 -5.20068 -28.0626
ltibia 20.5873
lfoot -21.7049 -4.38643
ltoes -12.2963
472
root -6.14921 18.0687 -7.82664 13.8557 19.062 0.0829384
lowerback -6.2355 -1.26989 -5.8809
upperback -6.02967 -1.40398 1.87778
thorax -2.58592 -0.442657 5.20012
lowerneck -1.46281 11.4158 7.88259
upperneck 6.29954 15.9935 -12.1423
head 3.73524 7.79091 -4.14166
rclavicle -6.33595e-014 -7.55382e-015
rhumerus -58.211 17.7313 -91.9757
rradius 45.1508
rwrist -10.8881
rhand -11.3969 -31.2538
rfingers 7.12502
rthumb 14.6381 -60.7171
lclavicle -6.33595e-014 -7.55382e-015
lhumerus -45.2243 -25.371 87.7208
lradius 85.1593
lwrist 9.49412
lhand -21.8892 -10.0936
lfingers 7.12502
lthumb 4.51573 19.8382
rfemur -38.5764 10.7089 8.85617
rtibia 12.5611
rfoot -8.31953 -20.6753
rtoes -24.9794
lfemur -8.59436 -5.03844 -28.06
ltibia 20.3543
lfoot -21.5173 -4.62013
ltoes -12.5576
